Coordinates
version=1
nRows=17
nColumns=40
inDegrees=yes
endheader
time	pelvis_tilt	pelvis_list	pelvis_rotation	pelvis_tx	pelvis_ty	pelvis_tz	hip_flexion_r	hip_adduction_r	hip_rotation_r	knee_angle_r	knee_angle_r_beta	ankle_angle_r	subtalar_angle_r	mtp_angle_r	hip_flexion_l	hip_adduction_l	hip_rotation_l	knee_angle_l	knee_angle_l_beta	ankle_angle_l	subtalar_angle_l	mtp_angle_l	lumbar_extension	lumbar_bending	lumbar_rotation	arm_flex_r	arm_add_r	arm_rot_r	elbow_flex_r	pro_sup_r	wrist_flex_r	wrist_dev_r	arm_flex_l	arm_add_l	arm_rot_l	elbow_flex_l	pro_sup_l	wrist_flex_l	wrist_dev_l
1760624568.82768512	     11.76775839	     -1.91281930	      0.25401356	      0.19016652	      0.85654994	     -0.00198118	     80.00000000	     -7.00000000	      0.00000000	     80.00000000	      1.39626340	      0.00000000	      0.00000000	      0.00000000	     80.00000000	     -7.00000000	      0.00000000	     80.00000000	      1.39626340	      0.00000000	      0.00000000	      0.00000000	    -17.86238609	      0.33110534	      2.60424251	      4.52122196	     -1.67217879	      3.51902196	      0.00000000	      2.64908253	    -70.00000021	    -24.99999983	      4.91618527	     -0.86677683	     -0.23375971	      0.00000000	     21.29936502	    -70.00000021	    -24.99999983
1760624568.83768511	     11.76743239	     -1.91015184	      0.25289604	      0.19012702	      0.85652290	     -0.00195342	     80.00000000	     -7.00000000	      0.00000000	     80.00000000	      1.39626340	      0.00000000	      0.00000000	      0.00000000	     80.00000000	     -7.00000000	      0.00000000	     80.00000000	      1.39626340	      0.00000000	      0.00000000	      0.00000000	    -17.86362572	      0.33401452	      2.60561463	      4.51924137	     -1.66955640	      3.51955797	      0.00000000	      2.64872090	    -70.00000021	    -24.99999983	      4.91697826	     -0.86459619	     -0.23361778	      0.00000000	     21.30014060	    -70.00000021	    -24.99999983
1760624568.84768510	     11.76524094	     -1.90920149	      0.24972492	      0.19009137	      0.85654450	     -0.00196035	     80.00000000	     -7.00000000	      0.00000000	     80.00000000	      1.39626340	      0.00000000	      0.00000000	      0.00000000	     80.00000000	     -7.00000000	      0.00000000	     80.00000000	      1.39626340	      0.00000000	      0.00000000	      0.00000000	    -17.87330508	      0.33739491	      2.62566717	      4.50950929	     -1.64990242	      3.52809129	      0.00000000	      2.64513606	    -70.00000021	    -24.99999983	      4.92393826	     -0.83080684	     -0.23140638	      0.00000000	     21.31037831	    -70.00000021	    -24.99999983
1760624568.85768509	     11.76577719	     -1.90788626	      0.24942475	      0.19004930	      0.85650144	     -0.00194234	     80.00000000	     -7.00000000	      0.00000000	     80.00000000	      1.39626340	      0.00000000	      0.00000000	      0.00000000	     80.00000000	     -7.00000000	      0.00000000	     80.00000000	      1.39626340	      0.00000000	      0.00000000	      0.00000000	    -17.87375232	      0.33877886	      2.62686061	      4.50876509	     -1.65018937	      3.52864219	      0.00000000	      2.64499253	    -70.00000021	    -24.99999983	      4.92361650	     -0.83103527	     -0.23122893	      0.00000000	     21.31098278	    -70.00000021	    -24.99999983
1760624568.86768508	     11.76574568	     -1.90689733	      0.24929028	      0.19002664	      0.85648953	     -0.00192062	     80.00000000	     -7.00000000	      0.00000000	     80.00000000	      1.39626340	      0.00000000	      0.00000000	      0.00000000	     80.00000000	     -7.00000000	      0.00000000	     80.00000000	      1.39626340	      0.00000000	      0.00000000	      0.00000000	    -17.87422249	      0.33973325	      2.62743828	      4.50825565	     -1.65000415	      3.52888562	      0.00000000	      2.64490161	    -70.00000021	    -24.99999983	      4.92323931	     -0.83066868	     -0.23118827	      0.00000000	     21.31125246	    -70.00000021	    -24.99999983
1760624568.87768507	     11.76544572	     -1.90572167	      0.24917399	      0.19000577	      0.85647818	     -0.00189465	     80.00000000	     -7.00000000	      0.00000000	     80.00000000	      1.39626340	      0.00000000	      0.00000000	      0.00000000	     80.00000000	     -7.00000000	      0.00000000	     80.00000000	      1.39626340	      0.00000000	      0.00000000	      0.00000000	    -17.87496788	      0.34083381	      2.62803471	      4.50770025	     -1.64952969	      3.52910825	      0.00000000	      2.64479620	    -70.00000021	    -24.99999983	      4.92264483	     -0.82995372	     -0.23118935	      0.00000000	     21.31149646	    -70.00000021	    -24.99999983
1760624568.88768506	     11.76017932	     -1.90069392	      0.24546021	      0.18995366	      0.85645772	     -0.00191390	     80.00000000	     -7.00000000	      0.00000000	     80.00000000	      1.39626340	      0.00000000	      0.00000000	      0.00000000	     80.00000000	     -7.00000000	      0.00000000	     80.00000000	      1.39626340	      0.00000000	      0.00000000	      0.00000000	    -17.88570959	      0.34739020	      2.63615783	      4.50219047	     -1.64124890	      3.53331764	      0.00000000	      2.64309838	    -70.00000021	    -24.99999983	      4.91602031	     -0.81706344	     -0.23102748	      0.00000000	     21.31587028	    -70.00000021	    -24.99999983
1760624568.89768505	     11.76043226	     -1.90033457	      0.24542790	      0.18994147	      0.85644776	     -0.00188281	     80.00000000	     -7.00000000	      0.00000000	     80.00000000	      1.39626340	      0.00000000	      0.00000000	      0.00000000	     80.00000000	     -7.00000000	      0.00000000	     80.00000000	      1.39626340	      0.00000000	      0.00000000	      0.00000000	    -17.88589550	      0.34768555	      2.63650623	      4.50200998	     -1.64134768	      3.53359772	      0.00000000	      2.64303014	    -70.00000021	    -24.99999983	      4.91568616	     -0.81621014	     -0.23102973	      0.00000000	     21.31610798	    -70.00000021	    -24.99999983
1760624568.90768504	     11.76044027	     -1.89989920	      0.24539019	      0.18992013	      0.85643780	     -0.00185383	     80.00000000	     -7.00000000	      0.00000000	     80.00000000	      1.39626340	      0.00000000	      0.00000000	      0.00000000	     80.00000000	     -7.00000000	      0.00000000	     80.00000000	      1.39626340	      0.00000000	      0.00000000	      0.00000000	    -17.88637143	      0.34806199	      2.63686785	      4.50173169	     -1.64121430	      3.53386052	      0.00000000	      2.64295041	    -70.00000021	    -24.99999983	      4.91500788	     -0.81517252	     -0.23107339	      0.00000000	     21.31632065	    -70.00000021	    -24.99999983
1760624568.91768503	     11.76004279	     -1.89897547	      0.24505298	      0.18990577	      0.85643742	     -0.00184517	     80.00000000	     -7.00000000	      0.00000000	     80.00000000	      1.39626340	      0.00000000	      0.00000000	      0.00000000	     80.00000000	     -7.00000000	      0.00000000	     80.00000000	      1.39626340	      0.00000000	      0.00000000	      0.00000000	    -17.88714942	      0.34906386	      2.63725515	      4.50144149	     -1.64089701	      3.53411089	      0.00000000	      2.64286062	    -70.00000021	    -24.99999983	      4.91423910	     -0.81485124	     -0.23111882	      0.00000000	     21.31652696	    -70.00000021	    -24.99999983
1760624568.92768502	     11.75947038	     -1.89797948	      0.24492557	      0.18988240	      0.85642985	     -0.00181896	     80.00000000	     -7.00000000	      0.00000000	     80.00000000	      1.39626340	      0.00000000	      0.00000000	      0.00000000	     80.00000000	     -7.00000000	      0.00000000	     80.00000000	      1.39626340	      0.00000000	      0.00000000	      0.00000000	    -17.88820287	      0.35001027	      2.63769028	      4.50107230	     -1.64068099	      3.53436379	      0.00000000	      2.64277171	    -70.00000021	    -24.99999983	      4.91308534	     -0.81414865	     -0.23121849	      0.00000000	     21.31670026	    -70.00000021	    -24.99999983
1760624568.93768501	     11.75230144	     -1.89459196	      0.24081929	      0.18982904	      0.85641947	     -0.00183021	     80.00000000	     -7.00000000	      0.00000000	     80.00000000	      1.39626340	      0.00000000	      0.00000000	      0.00000000	     80.00000000	     -7.00000000	      0.00000000	     80.00000000	      1.39626340	      0.00000000	      0.00000000	      0.00000000	    -17.90117775	      0.35536530	      2.64265393	      4.50015383	     -1.63840088	      3.53893784	      0.00000000	      2.64154729	    -70.00000021	    -24.99999983	      4.90045413	     -0.80548765	     -0.23230430	      0.00000000	     21.31981445	    -70.00000021	    -24.99999983
1760624568.94768500	     11.75229763	     -1.89431921	      0.24075152	      0.18982939	      0.85641312	     -0.00180643	     80.00000000	     -7.00000000	      0.00000000	     80.00000000	      1.39626340	      0.00000000	      0.00000000	      0.00000000	     80.00000000	     -7.00000000	      0.00000000	     80.00000000	      1.39626340	      0.00000000	      0.00000000	      0.00000000	    -17.90157978	      0.35561889	      2.64292825	      4.50033110	     -1.63873823	      3.53925009	      0.00000000	      2.64150770	    -70.00000021	    -24.99999983	      4.89995156	     -0.80481859	     -0.23236529	      0.00000000	     21.32000513	    -70.00000021	    -24.99999983
1760624568.95768499	     11.75072058	     -1.89239320	      0.24130475	      0.18978234	      0.85645946	     -0.00174393	     80.00000000	     -7.00000000	      0.00000000	     80.00000000	      1.39626340	      0.00000000	      0.00000000	      0.00000000	     80.00000000	     -7.00000000	      0.00000000	     80.00000000	      1.39626340	      0.00000000	      0.00000000	      0.00000000	    -17.90369775	      0.35715985	      2.64445060	      4.50072580	     -1.63949788	      3.53996423	      0.00000000	      2.64141812	    -70.00000021	    -24.99999983	      4.89609783	     -0.80234905	     -0.23264778	      0.00000000	     21.32037110	    -70.00000021	    -24.99999983
1760624568.96768498	     11.76400180	     -1.89011459	      0.19436628	      0.18981834	      0.85649172	     -0.00195840	     80.00000000	     -7.00000000	      0.00000000	     80.00000000	      1.39626340	      0.00000000	      0.00000000	      0.00000000	     80.00000000	     -7.00000000	      0.00000000	     80.00000000	      1.39626340	      0.00000000	      0.00000000	      0.00000000	    -17.92567957	      0.38081426	      2.64656106	      4.51817376	     -1.68426308	      3.57272241	      0.00000000	      2.63834156	    -70.00000021	    -24.99999983	      4.85014364	     -0.74602762	     -0.23345195	      0.00000000	     21.34353882	    -70.00000021	    -24.99999983
1760624568.97768497	     11.76349092	     -1.88924425	      0.19449685	      0.18983008	      0.85650977	     -0.00191799	     80.00000000	     -7.00000000	      0.00000000	     80.00000000	      1.39626340	      0.00000000	      0.00000000	      0.00000000	     80.00000000	     -7.00000000	      0.00000000	     80.00000000	      1.39626340	      0.00000000	      0.00000000	      0.00000000	    -17.92628854	      0.38164958	      2.64697748	      4.51846346	     -1.68454439	      3.57304108	      0.00000000	      2.63829409	    -70.00000021	    -24.99999983	      4.84972214	     -0.74626178	     -0.23342685	      0.00000000	     21.34379383	    -70.00000021	    -24.99999983
1760624568.98768497	     11.76346459	     -1.88849107	      0.19421450	      0.18983826	      0.85649604	     -0.00189922	     80.00000000	     -7.00000000	      0.00000000	     80.00000000	      1.39626340	      0.00000000	      0.00000000	      0.00000000	     80.00000000	     -7.00000000	      0.00000000	     80.00000000	      1.39626340	      0.00000000	      0.00000000	      0.00000000	    -17.92670560	      0.38256558	      2.64715822	      4.51853435	     -1.68497672	      3.57335437	      0.00000000	      2.63824875	    -70.00000021	    -24.99999983	      4.84979276	     -0.74701471	     -0.23338258	      0.00000000	     21.34404643	    -70.00000021	    -24.99999983
